<?xml version="1.0" ?><!DOCTYPE svg  PUBLIC '-//W3C//DTD SVG 1.1//EN'  'http://www.w3.org/Graphics/SVG/1.1/DTD/svg11.dtd'><svg height="520px" style="enable-background:new 0 0.1 221 520;" version="1.1" viewBox="0 0.1 221 520" width="221px" xml:space="preserve" xmlns="http://www.w3.org/2000/svg" xmlns:xlink="http://www.w3.org/1999/xlink"><style type="text/css">
<![CDATA[
	.st0{fill:none;}
]]>
</style><defs/><path d="M112.5,125.8l-22,12.7v-26.9l22,12.7l22-12.7v26.9L112.5,125.8L112.5,125.8z M112.5,262.2l35.2-144.5l8.9,0  c29.1,0,48.5,24.4,48.5,49.3v114.4c0.1,22.5-29.3,22.5-29.3,0v-112h-14v303.9c0,11.6-9.4,21-21.1,21c-11.6,0-21-9.4-21-21l0.1-176.3  h-14.1l0,176.3c0,11.6-9.4,21-21,21c-11.6,0-21-9.4-21-21l0-303.9H49.5v112c0,22.4-29.5,22.4-29.5,0V166.4c0-27,21.3-48.6,47.9-48.6  l9.5,0L112.5,262.2L112.5,262.2z M112.7,110C92,110,75.2,93.2,75.2,72.5C75.2,51.8,92,35,112.7,35c20.7,0,37.5,16.8,37.5,37.5  C150.1,93.2,133.4,110,112.7,110L112.7,110z"/><rect class="st0" height="520" id="_x3C_Slice_x3E__2_" width="221"/></svg>