<?xml version="1.0" ?><svg id="Layer_1" width="65px" height="110px" style="enable-background:new 40 50 78.485 184.751;" version="1.1" viewBox="0 0 78.485 184.751" xml:space="preserve" xmlns="http://www.w3.org/2000/svg" xmlns:xlink="http://www.w3.org/1999/xlink"><g><path d="M6.025,117.533c0.023,0,0.047,0,0.07,0c3.313-0.038,5.969-2.754,5.931-6.068c-0.297-25.969,2.018-39.653,4.408-46.854   v24.43v16.203v69.131c0,5.729,4.645,10.375,10.378,10.375c5.727,0,10.373-4.646,10.373-10.375v-53.509h4.113v53.509   c0,5.729,4.646,10.375,10.377,10.375c5.729,0,10.375-4.646,10.375-10.375v-69.131V89.042V64.608   c2.391,7.2,4.706,20.884,4.409,46.857c-0.038,3.313,2.618,6.03,5.931,6.068c0.023,0,0.046,0,0.07,0c3.281,0,5.96-2.642,5.998-5.932   c0.386-33.789-3.398-54.231-11.57-62.498c-2.733-2.764-6.044-4.293-9.608-4.483c-0.397-0.078-0.808-0.121-1.23-0.121H22.433   c-0.422,0-0.833,0.042-1.23,0.121c-3.564,0.19-6.873,1.719-9.606,4.483C3.425,57.37-0.359,77.813,0.027,111.602   C0.064,114.892,2.743,117.533,6.025,117.533z"/><circle cx="39.242" cy="20.5" r="20.5"/></g></svg>