<?xml version="1.0" ?><svg width="65px" height="110px" enable-background="new 0 0 69.9496 163.3127" id="Layer_1" version="1.1" viewBox="0 0 69.9496 163.3127" xml:space="preserve" xmlns="http://www.w3.org/2000/svg" xmlns:xlink="http://www.w3.org/1999/xlink"><g><path d="M17.7421,155.545c0,4.2891,3.4769,7.7677,7.7669,7.7677c4.2899,0,7.7667-3.4786,7.7667-7.7677v-24.611   c-6.3274-0.0786-11.4754-0.5901-15.5336-1.2365V155.545z"/><path d="M36.6715,155.545c0,4.2891,3.4786,7.7677,7.7687,7.7677c4.2881,0,7.7668-3.4786,7.7668-7.7677v-25.8474   c-4.0586,0.6465-9.2072,1.1579-15.5355,1.2365V155.545z"/><path d="M0.008,96.0616c-0.1587,2.895,2.0596,5.3706,4.9551,5.5293c0.5619,0.0302,1.0998-0.0532,1.6171-0.1902   c2.0551-14.6062,5.2916-30.2061,7.6382-40.6893h2.3662c-3.6639,16.3566-9.6837,45.9459-9.6837,63.7982   c0,0,8.6387,4.1359,28.0737,4.1359s28.0736-4.1359,28.0736-4.1359c0-17.8523-6.0208-47.4415-9.6851-63.7982h2.3661   c2.3477,10.4848,5.5853,26.0878,7.6407,40.6959c0.4266,0.1122,0.8658,0.1914,1.3251,0.1914c0.0967,0,0.1938-0.0024,0.2915-0.0078   c2.8955-0.1587,5.1138-2.6343,4.9551-5.5293c-1.0175-18.5692-4.2442-31.5103-8.5106-40.4821   c-0.8311,0.2077-1.7133,0.3203-2.579,0.3203c-2.5498,0.0005-6.374-0.853-10.1104-4.9199   c-3.1481-3.4261-3.6988-8.2866-3.8825-12.8979c-0.0077-0.0032-0.0154-0.0063-0.0231-0.0095   c-2.9545,1.5421-6.3043,2.4272-9.8615,2.4272c-3.5573,0-6.907-0.8851-9.8616-2.427C14.234,42.6223,2.1641,56.7145,0.008,96.0616z"/><path d="M47.114,36.703c0.1356,4.6249,0.4335,9.5782,3.3207,12.7208c7.3596,8.0103,15.3817,2.0193,12.1457,2.0956   c-3.236,0.0762-7.2254-1.9059-6.6954-13.845c0.1843-4.1516-0.3977-7.3065-1.4523-9.7199   C52.8177,31.4888,50.2802,34.5126,47.114,36.703z"/><ellipse cx="34.9743" cy="19.0999" rx="19.0999" ry="19.0998" transform="matrix(0.3827 -0.9239 0.9239 0.3827 3.9442 44.1027)"/></g></svg>